<svg xmlns="http://www.w3.org/2000/svg" viewBox="0 0 35.9 35"><title>자산 7</title><g id="레이어_2" data-name="레이어 2"><g id="contact"><path d="M12,28.18c0,.15-.17.26-.38.26s-.4-.09-.4-.26.16-.26.37-.26S12,28,12,28.18Zm-2.25-.32c0,.14.09.31.31.35a.35.35,0,0,0,.45-.14c0-.15-.1-.32-.32-.38a.36.36,0,0,0-.44.17ZM13,27.73c-.21.05-.35.19-.33.36s.21.24.43.19.35-.19.33-.34S13.16,27.71,13,27.73ZM17.72,0A17.36,17.36,0,0,0,0,17.66,18.14,18.14,0,0,0,12.27,35c.92.17,1.25-.4,1.25-.88s0-2.92,0-4.44c0,0-5.07,1.09-6.13-2.16,0,0-.83-2.1-2-2.64,0,0-1.66-1.14.11-1.12A3.83,3.83,0,0,1,8.26,25.6a3.83,3.83,0,0,0,5.28,1.51,4.05,4.05,0,0,1,1.16-2.44c-4-.45-8.13-1-8.13-8a5.48,5.48,0,0,1,1.71-4.26A6.83,6.83,0,0,1,8.47,7.5c1.51-.47,5,1.95,5,1.95a17.24,17.24,0,0,1,9.09,0S26,7,27.55,7.5a6.8,6.8,0,0,1,.18,4.91,5.62,5.62,0,0,1,1.87,4.26c0,7-4.26,7.55-8.31,8A4.27,4.27,0,0,1,22.52,28c0,2.44,0,5.46,0,6s.33,1,1.25.88A18,18,0,0,0,35.9,17.66C35.9,7.62,27.75,0,17.72,0ZM7,25c-.09.07-.07.24.06.38s.28.16.37.07.07-.24,0-.38A.29.29,0,0,0,7,25Zm-.78-.58c0,.09,0,.21.17.28a.22.22,0,0,0,.31-.05c0-.1,0-.21-.17-.29S6.3,24.3,6.25,24.38ZM8.6,27c-.12.1-.07.31.09.45s.38.19.47.07.05-.31-.09-.45S8.69,26.84,8.6,27Zm-.83-1.06c-.11.07-.11.26,0,.42s.31.24.41.17a.34.34,0,0,0,0-.45c-.1-.16-.29-.24-.41-.14Z"/></g></g></svg>