<svg xmlns="http://www.w3.org/2000/svg" viewBox="0 0 70 70"><defs><style>.cls-1{fill:#fff;}</style></defs><title>자산 13</title><g id="레이어_2" data-name="레이어 2"><g id="메인ver2"><rect class="cls-1" x="4.1" y="4.1" width="61.8" height="61.8"/><path d="M0,0V70H70V0ZM65.9,65.9H4.1V4.1H65.9Z"/><path d="M29.14,24.83H19.26v23.3h4.53V40.32H29.3a7.52,7.52,0,0,0,7.25-7.75C36.55,29,33.66,24.83,29.14,24.83ZM29,36.35H23.79V28.8h5.05c1.92,0,3.12,1.8,3.12,3.77C32,34.86,30.63,36.35,29,36.35Z"/><path d="M46.07,37.82c-.64-.15-3.38-.6-3.38-2.16,0-1.26,1-1.94,2.62-1.94a9,9,0,0,1,5,1.9L52.07,33a9.52,9.52,0,0,0-6.73-2.37c-3.59,0-6.76,2-6.76,5.68s5,4.48,6.14,4.79c1.33.37,3.77.85,3.77,2.33,0,1.2-1.15,1.9-2.82,1.9a11.34,11.34,0,0,1-6-2.26L38,45.8a12.43,12.43,0,0,0,7.78,2.65c2.14,0,7-.67,7-5.44C52.73,39,47.25,38.13,46.07,37.82Z"/></g></g></svg>