<svg xmlns="http://www.w3.org/2000/svg" viewBox="0 0 70 70"><defs><style>.cls-1{fill:#fff;}</style></defs><title>자산 15</title><g id="레이어_2" data-name="레이어 2"><g id="메인ver2"><rect class="cls-1" x="4.1" y="4.1" width="61.8" height="61.8"/><path d="M0,0V70H70V0ZM65.9,65.9H4.1V4.1H65.9Z"/><path d="M27.64,24.83h-4l-8.89,23.3h4.66l2.13-5.81h8.14l2.16,5.81H36.5Zm-5.35,14.3L25.64,30l3.22,9.15Z"/><path d="M55.14,39.46c0-5.93-4.59-8.82-9-8.82a8.91,8.91,0,1,0,0,17.81c5.22,0,7.37-3.18,8-4.49l-3.77-1.05a4.45,4.45,0,0,1-4.07,2.33c-3.77,0-4.49-3.62-4.56-4.3H55C55.08,40.76,55.14,39.75,55.14,39.46ZM41.69,38.08a4.46,4.46,0,0,1,8.92,0Z"/></g></g></svg>