<svg xmlns="http://www.w3.org/2000/svg" viewBox="0 0 70 70"><defs><style>.cls-1{fill:#fff;}</style></defs><title>자산 16</title><g id="레이어_2" data-name="레이어 2"><g id="메인ver2"><rect class="cls-1" x="4.1" y="4.1" width="61.8" height="61.8"/><path d="M0,0V70H70V0ZM65.9,65.9H4.1V4.1H65.9Z"/><path d="M31.33,24.83H21.46v23.3H26V40.32H31.5a7.53,7.53,0,0,0,7.25-7.75C38.75,29,35.85,24.83,31.33,24.83Zm-.1,11.52H26V28.8H31c1.92,0,3.12,1.8,3.12,3.77C34.16,34.86,32.82,36.35,31.23,36.35Z"/><path d="M51.71,34.74v-4c-4-.41-5.9,3.29-6.2,3.88V30.93h-4v17.2h4.4V37.72c.46-1,2-3,5.84-3Z"/></g></g></svg>