<svg xmlns="http://www.w3.org/2000/svg" viewBox="0 0 450 550"><defs><style>.cls-1{fill:#2d2924;}</style></defs><title>자산 4</title><g id="레이어_2" data-name="레이어 2"><g id="portfolio-page"><path class="cls-1" d="M0,0V550H420V538.94s.22-.78.8-.9a1.2,1.2,0,0,1,.93.22,3.76,3.76,0,0,0,2.21.68,3.94,3.94,0,0,0,0-7.88,3.76,3.76,0,0,0-2.21.68,1.2,1.2,0,0,1-.93.22c-.58-.12-.8-.9-.8-.9V520h11.06s.78-.22.9-.8a1.2,1.2,0,0,0-.22-.93,3.76,3.76,0,0,1-.68-2.21,3.94,3.94,0,0,1,7.88,0,3.76,3.76,0,0,1-.68,2.21,1.2,1.2,0,0,0-.22.93c.12.58.9.8.9.8H450V0Z"/></g></g></svg>