<svg xmlns="http://www.w3.org/2000/svg" viewBox="0 0 299.83 248.18"><defs><style>.cls-1{fill:#ddd;}</style></defs><title>자산 12</title><g id="레이어_2" data-name="레이어 2"><g id="contact"><path class="cls-1" d="M149.92,3a22.85,22.85,0,0,1,22.82,22.83,21.64,21.64,0,0,1-3.88,12.73l0,0,0,0A10.82,10.82,0,0,0,166.87,47c1.12,5.5,7.37,7.37,8.08,7.56l.39.11h69.84V124.5l.11.39c.19.71,2.06,7,7.57,8.07a9.73,9.73,0,0,0,1.93.2,11.43,11.43,0,0,0,6.38-2.12l.05,0,0,0A21.65,21.65,0,0,1,274,127.09a22.83,22.83,0,0,1,0,45.65,21.65,21.65,0,0,1-12.74-3.88l0,0-.05,0a11.5,11.5,0,0,0-6.38-2.12,9.73,9.73,0,0,0-1.93.2c-5.51,1.12-7.38,7.37-7.57,8.08l-.11.39v69.84h-69c-1-.35-3.16-1.39-3.46-2.87-.16-.78-.18-1.91,1-3.77a27.63,27.63,0,0,0,5-16.18,28.83,28.83,0,1,0-57.65,0,27.64,27.64,0,0,0,5,16.18c1.21,1.86,1.18,3,1,3.77-.28,1.38-2.27,2.45-3.45,2.87h-69V175.34l-.11-.39c-.19-.71-2.06-7-7.56-8.08a9.83,9.83,0,0,0-1.94-.2,11.53,11.53,0,0,0-6.38,2.12l0,0,0,0a21.64,21.64,0,0,1-12.73,3.88,22.83,22.83,0,1,1,0-45.65A21.64,21.64,0,0,1,38.56,131l0,0,0,0A11.45,11.45,0,0,0,45,133.16,9.83,9.83,0,0,0,47,133c5.5-1.11,7.37-7.36,7.56-8.07l.11-.39V54.65H124.5l.39-.11c.71-.19,7-2.06,8.07-7.56A10.74,10.74,0,0,0,131,38.66l0,0,0,0a21.64,21.64,0,0,1-3.88-12.73A22.85,22.85,0,0,1,149.92,3m0-3a25.82,25.82,0,0,0-25.83,25.83,24.58,24.58,0,0,0,4.44,14.48A7.87,7.87,0,0,1,130,46.38c-.78,3.85-5.93,5.27-5.93,5.27H51.65v72.44s-1.42,5.15-5.27,5.93a6.23,6.23,0,0,1-1.34.14,8.57,8.57,0,0,1-4.73-1.63,24.58,24.58,0,0,0-14.48-4.44,25.83,25.83,0,1,0,0,51.65,24.58,24.58,0,0,0,14.48-4.44A8.57,8.57,0,0,1,45,169.67a6.93,6.93,0,0,1,1.34.14c3.85.78,5.27,5.93,5.27,5.93v72.44h72.44s5.15-1.42,5.93-5.27a7.87,7.87,0,0,0-1.49-6.07,24.58,24.58,0,0,1-4.44-14.48,25.83,25.83,0,1,1,51.65,0,24.58,24.58,0,0,1-4.44,14.48,7.91,7.91,0,0,0-1.49,6.07c.78,3.85,5.93,5.27,5.93,5.27h72.44V175.74s1.42-5.15,5.27-5.93a6.93,6.93,0,0,1,1.34-.14,8.55,8.55,0,0,1,4.73,1.63A24.59,24.59,0,0,0,274,175.74a25.83,25.83,0,0,0,0-51.65,24.59,24.59,0,0,0-14.49,4.44,8.55,8.55,0,0,1-4.73,1.63,6.23,6.23,0,0,1-1.34-.14c-3.85-.78-5.27-5.93-5.27-5.93V51.65H175.74s-5.15-1.42-5.93-5.27a7.91,7.91,0,0,1,1.49-6.07,24.58,24.58,0,0,0,4.44-14.48A25.82,25.82,0,0,0,149.92,0Z"/></g></g></svg>