<svg xmlns="http://www.w3.org/2000/svg" viewBox="0 0 217.5 666.61"><defs><style>.cls-1{fill:#ddd;}</style></defs><title>자산 11</title><g id="레이어_2" data-name="레이어 2"><g id="portfolio-page"><path class="cls-1" d="M217.5,663.61v3A58.74,58.74,0,0,1,160.33,608,56,56,0,0,1,170.45,575c2.88-4.38,3.85-8.29,3.05-12.26-1.42-7-10.48-10-11.88-10.47H0v-162l.05-.19c.14-.5,3.49-12.31,12.82-14.2,4.74-1,9.5.18,14.56,3.51A53.08,53.08,0,0,0,58.66,389a55.67,55.67,0,1,0,0-111.33c-11.69,0-22.48,3.3-31.18,9.55-5.11,3.37-9.88,4.52-14.61,3.55C3.54,288.85.19,277,.05,276.54l0-.2v-162H161.62c1.4-.44,10.46-3.51,11.88-10.47.8-4-.17-7.89-3.08-12.31-6.59-9.17-10.09-20.56-10.09-32.89A58.74,58.74,0,0,1,217.5,0V3m0,0a55.74,55.74,0,0,0-54.17,55.64,53,53,0,0,0,9.56,31.19c3.36,5.11,4.51,9.87,3.55,14.61-1.9,9.32-13.71,12.67-14.21,12.81l-.19.06H3V275.92c.43,1.4,3.5,10.47,10.47,11.88,4,.81,7.88-.17,12.31-3.08,9.17-6.58,20.56-10.08,32.88-10.08a58.67,58.67,0,1,1,0,117.33,56,56,0,0,1-32.93-10.12C21.35,379,17.44,378,13.47,378.8c-7,1.43-10,10.48-10.47,11.88V549.3H162l.19.05c.5.14,12.31,3.49,14.21,12.82,1,4.74-.19,9.5-3.52,14.56A53.1,53.1,0,0,0,163.33,608a55.75,55.75,0,0,0,54.17,55.65"/></g></g></svg>