<?xml version="1.0" encoding="utf-8"?>
<!-- Generator: Adobe Illustrator 22.0.1, SVG Export Plug-In . SVG Version: 6.00 Build 0)  -->
<svg version="1.1" id="레이어_1" xmlns="http://www.w3.org/2000/svg" xmlns:xlink="http://www.w3.org/1999/xlink" x="0px"
	 y="0px" viewBox="0 0 323.8 322" style="enable-background:new 0 0 323.8 322;" xml:space="preserve">
<style type="text/css">
	.st0{fill:#2D2924;}
</style>
<g>
	<path class="st0" d="M251.3,190.4c-0.8,3.1-0.8,5.9-0.6,8.1c0.1,2.3,0.7,4.1,1.1,5.6c0.5,1.5,0.9,2.6,1.3,3.6
		c0.3,1,0.7,1.7,0.9,2.3c0.4,1.3,0.8,2,1.2,3.1c0.5,1,1.3,2.3,3.4,4.1c-2.1-1.4-4-3-5.7-4.9c-1.6-1.9-3.1-4.1-4.2-6.4
		c-0.9-2.4-1.5-5-1.8-7.8c-0.2-2.8,0.1-5.6,0.7-8.3c0.7-2.7,1.8-5.2,3.2-7.5c1.4-2.3,3.1-4.1,4.8-5.6c3.5-3,7.1-4.4,9.2-4.9
		c0.5-0.1,1-0.2,1.4-0.3c0.4,0,0.6,0,0.8,0c0.3,0.1,0.2,0.3-0.4,0.6c-0.2,0.1-0.5,0.3-1,0.5c-0.5,0.3-1.1,0.5-1.8,0.9
		c-0.7,0.4-1.5,0.8-2.3,1.5c-0.4,0.3-0.9,0.6-1.3,0.9c-0.4,0.4-0.8,0.7-1.3,1.1c-1.7,1.6-3.3,3.6-4.7,5.9
		C253,185.2,251.9,187.8,251.3,190.4z"/>
	<path class="st0" d="M271.4,166.9c-0.7,0-1.3,0.1-1.8,0.2c-0.5,0.1-0.9,0.1-1.4,0.2c-0.9,0.1-1.7,0.3-3.1,0.7
		c2.6-1.3,5.5-2.3,8.6-2.8C272.9,165.7,272.1,166.3,271.4,166.9z"/>
	<path class="st0" d="M279.7,220.4c1.1-0.3,2.2-0.6,3.2-1c0.5-0.2,1-0.4,1.5-0.7c0.3-0.1,0.5-0.2,0.7-0.4c0.3-0.1,0.4-0.2,0.9-0.5
		l2.4-1.5c0.8-0.5,1.6-1,2.5-1.3c1.7-0.7,3.5-1.2,5.3-1.2c1.3,0,1.4,0.2,1,0.2c-0.4,0-1.5,0.1-2.7,0.3c-2.3,0.4-4.9,2-4.6,1.9
		c1.8-0.9,3.7-1.5,5.7-1.6c1.9-0.1,3.9,0.3,5.7,1.2c1.7,1,3.1,2.4,4.2,4c0.5,0.8,1,1.7,1.4,2.6c0.2,0.4,0.4,0.9,0.5,1.4
		c0.2,0.5,0.2,0.9,0.2,1.4c-0.1-0.5-0.1-0.9-0.3-1.4c-0.2-0.5-0.3-0.9-0.5-1.3c-0.4-0.9-0.8-1.6-1.3-2.4c-1-1.4-2.1-2.6-3.3-3.5
		c-1.2-0.9-2.6-1.4-3.9-1.6c-1.3-0.2-2.5-0.2-3.6,0c-2.2,0.4-4,1.2-5.4,2.1c-1.4,0.9-2.8,1.8-3.5,2.2
		C283.2,220.7,282.1,220.8,279.7,220.4z"/>
	<path class="st0" d="M214.2,303.4c0.3-0.9,0.7-1.5,0.9-1.8c0.3-0.3,0.4-0.4,0.5-0.3c0.1,0.2-0.3,1-0.3,2.1c0,0.5,0,0.9,0.2,1.4
		c0.1,0.3,0.3,0.4,0.7,0.8c0.4,0.3,1,0.7,1.6,0.9c0.3,0.1,0.7,0.3,1,0.3c0.2,0,0.3,0.1,0.4,0.1c0.1,0,0.3,0.1,0.3,0l-1.4-0.2
		c0.6,0,1.1-0.1,1.4-0.1c10.3,0.1,19.3,1,11.1,1.7c-5.3,0-9.4,0-12.5,0.1l0.9,0.1c-0.1,0-0.4-0.1-0.6-0.2c-0.2-0.1-0.5-0.2-0.7-0.3
		c-0.4-0.2-0.8-0.4-1.2-0.6c-0.7-0.4-1.3-0.9-1.6-1.3c-0.4-0.4-0.5-0.8-0.7-1.2C214.2,304.5,214.1,304,214.2,303.4z"/>
	<g>
		<path class="st0" d="M309.7,292.4c-1.5-6.2-0.6-41.7-2-38.1c-0.6,1.5-1.2,3.1-1.5,7.4l0.8,17.9c-0.6,44.8-1.8-18.6-3.1,11.5
			c0.1,6.5,0.1,9.8,0.3,12.4c0.2,4.6,0.4,7.6,0.6,9c-1.5,0.2-1.1,0.4,0.6,0.6c0.2-1.2,0.4-3.7,0.7-7c0,2.8,0,5.3,0,7.6
			c-4.9,0-9-0.1-12.4-0.2c-3-0.1-5.4-0.3-7.3-0.5c-3.9-0.4-6.2-0.8-8.1-1.3c-3.7-0.9-5.9-1.8-16.9-1.8c-31.9,0.5-12.3,2.9-20,3.8
			c0.1-1-9-1.8-23.1-2.6l0.2,0c-2.2-0.8-4.6-2.3-5.6-4.4c-0.4-1-0.6-2.3-0.3-3.5c0.2-1.2,0.9-2.5,1.6-3.6c0-0.1,0.1-0.1,0.1-0.2
			c3.1-4.1,5.2-9.3,5.9-14.9c0.6-5.5,0-11.5-2.4-16.9l-0.9-2c-0.3-0.7-0.7-1.3-1.1-1.9l-0.6-1c-0.2-0.3-0.4-0.6-0.6-0.9l-1.3-1.8
			c-1.9-2.3-4.1-4.4-6.5-6.1c-2.4-1.7-5.1-3.2-7.9-4.1c-1.4-0.6-2.8-0.9-4.2-1.3c-0.7-0.2-1.4-0.2-2.2-0.4c-0.7-0.1-1.4-0.3-2.2-0.3
			l-2.2-0.1c-0.7,0-1.5,0.1-2.3,0.1c-1.5,0-3,0.3-4.5,0.6c-2.9,0.7-5.9,1.6-8.6,3l-1,0.5l-1,0.6c-0.6,0.4-1.3,0.8-2,1.2
			c-1.2,0.9-2.5,1.8-3.6,2.9c-1.2,1-2.2,2.2-3.2,3.4c-0.9,1.3-1.9,2.5-2.7,3.8c-0.9,1.3-1.5,2.8-2.2,4.2c-0.3,0.7-0.6,1.5-0.9,2.2
			c-0.1,0.4-0.3,0.7-0.4,1.1l-0.3,1.2c-0.2,0.8-0.5,1.5-0.6,2.3l-0.4,2.4c-0.1,0.8-0.1,1.6-0.2,2.4c0,0.8-0.1,1.6-0.1,2.4
			c0.1,3.2,0.5,6.5,1.5,9.6c0.5,1.6,1.1,3.1,1.9,4.6l0.3,0.6l0.2,0.4c0.1,0.3,0.3,0.5,0.4,0.8c0.3,0.5,0.6,0.9,0.9,1.4
			c0.6,1,1,2,1.1,3.2c0.1,1.1-0.1,2.3-0.8,3.2c-0.6,0.9-1.6,1.7-2.5,2.2c-0.5,0.3-1,0.5-1.5,0.7c-0.3,0.1-0.5,0.2-0.8,0.2l-0.8,0
			c-2.7,0-5.4,0-8.2-0.1c-3.2,0-6.3,0-9.5,0c-12.7,0-25.7,0.1-38.9,0.5c-7.1-0.1-14.9-0.2-23.9-0.4c0.1-3.1,0.1-6.4,0.2-9.8
			c0.1-4.4,0.1-8.9,0.2-13.5c0.1-9.2,0.2-18.7,0.3-28.3c0.1,0,0.3-0.1,0.4,0c-0.1-0.7-0.2-1.2-0.4-1.2c0.6-7.7,0.7-19,0.7-30.6
			l0-0.6l-0.2-0.5c-0.1-0.4-0.2-0.6-0.3-0.8l-0.3-0.7c-0.2-0.4-0.4-0.9-0.6-1.3c-0.4-0.8-0.9-1.7-1.5-2.5c-0.6-0.8-1.3-1.6-2.1-2.4
			c-0.9-0.7-1.9-1.4-3-1.9c-0.6-0.3-1.2-0.4-1.8-0.6c-0.6-0.1-1.1-0.2-1.7-0.2c-1.1-0.1-2.2,0-3.3,0.2c-2.1,0.4-3.8,1.3-5.4,2.3
			c-0.1,0.1-0.2,0.1-0.3,0.2c-5,3.7-11.1,4.7-15.6,4.3c-0.6-0.1-1.1-0.1-1.6-0.2c-0.5-0.1-1-0.2-1.4-0.3c-0.5-0.1-0.9-0.2-1.3-0.3
			c-0.4-0.2-0.8-0.3-1.1-0.4c-1.4-0.5-2.2-1.1-2.6-1.6c-0.3-0.1-0.7-0.2-1-0.3l-1-0.4l-1-0.4c-0.3-0.1-0.6-0.3-1-0.5
			c-4.7-2.8-6.2-5.3-6.9-6.2c-0.6-1-0.4-0.9,0.1-0.5c0.2,0.2,0.5,0.4,0.8,0.6c0.3,0.1,0.5,0.2,0.5,0.1c0.1-0.1-0.1-0.3-0.4-0.9
			c-0.3-0.6-0.9-1.3-1.5-2.6c-2.6-4-3.8-9.2-3.2-14.3c0.3-2.5,1-5,2-7.3c1.1-2.3,2.5-4.3,4.1-6.1c0.4-0.4,0.8-0.9,1.3-1.3
			c0.4-0.4,0.9-0.8,1.3-1.2c0.9-0.7,1.8-1.4,2.8-1.9c0.9-0.6,1.9-1,2.8-1.5c0.5-0.2,1-0.4,1.4-0.6c0.5-0.2,0.9-0.4,1.4-0.5
			c0.9-0.3,1.8-0.6,2.7-0.7c0.4-0.1,0.9-0.2,1.3-0.3c0.4,0,0.8-0.1,1.2-0.2c0.4-0.1,0.8-0.1,1.2-0.2c0.4,0,0.8-0.1,1.2-0.1
			c0.7-0.1,1.4-0.1,2.1-0.2c1.5,0.4-0.5,0.2,1,0.6c1.3,0.2,2.5,0.5,3.7,0.8c0.6,0.2,1.2,0.4,1.8,0.6c0.3,0.1,0.6,0.2,0.8,0.4
			l0.4,0.2l0.2,0.1l0.4,0.2c1,0.6,2.2,1.4,3.3,1.9c1.1,0.6,2.3,1.1,3.4,1.5c2.3,0.7,4.8,0.9,7.1,0.4c0.9-0.4,2.6-1.3,3.3-2.1
			c0.4-0.4,0.6-0.7,0.4-0.8c-0.1,0-0.2,0-0.5,0c-0.3,0.1-0.7,0.2-1.2,0.3c2.8-1.2,4.8-3.6,6.2-6.5c0.3-0.7,0.7-1.5,0.9-2.3
			c0.2-0.8,0.3-1.6,0.4-2.6c0-0.5,0.1-0.9,0.1-1.4c0-0.5,0-1,0-1.5c0-0.5,0-1,0-1.6c0-0.5,0-1,0-1.5c0-16.5,1.2-2,1.6-7.9
			c-0.2-11.5-0.3-23.4-0.4-35.5c0-6-0.1-12.1-0.1-18.2c0-4.3,0-8.5,0-12.8c7.9,0.1,15.8,0.2,23.4,0.3c9.4,0.1,18.6,0.3,27.4,0.6
			c0,1.1,14.1,1.5,29.9,1.6l1.1,0l1-0.3c0.5-0.2,0.7-0.2,1-0.3l0.8-0.3c0.5-0.2,1-0.4,1.5-0.7c1-0.5,2-1.1,3-1.8c1-0.7,2-1.6,3-2.7
			c1-1.1,1.9-2.4,2.6-4c0.4-0.8,0.6-1.6,0.8-2.5c0.2-0.8,0.3-1.4,0.3-2.2c0.1-1.5,0-2.9-0.3-4.3c-0.1-0.3-0.2-0.7-0.2-1l-0.3-0.9
			c-0.2-0.6-0.4-1.2-0.7-1.7c-0.5-1.1-1.1-2.2-1.8-3.2c-0.1-0.1-0.1-0.2-0.2-0.3c-2.7-3.7-3.7-8.1-3.9-11.5
			c0.1-3.6,0.8-7.1,2.4-10.4c1.6-3.2,3.8-6.2,6.7-8.4c2.9-2.2,6.2-3.9,9.8-4.6c3.6-0.7,7.3-0.6,10.8,0.3c3.5,1,6.7,2.8,9.3,5.2
			c2.7,2.4,4.6,5.4,5.8,8.5c1.2,3.1,1.6,6.4,1.5,9.6c-0.2,3.2-1.1,6-2.4,8.3c0.5-1.5,0.9-3.1,1.2-4.9c0.3-1.8,0.4-3.8,0.2-5.7
			c0-0.5,0-1-0.1-1.4l-0.2-1.4l-0.1-0.7l-0.2-0.7l-0.4-1.4c-0.7-1.8-1.3-3.6-2.4-5.1c-1.9-3.1-4.4-5.5-6.6-6.8
			c-1.1-0.6-2.1-1.2-2.9-1.4c-0.4-0.1-0.7-0.2-1-0.3c-0.3-0.1-0.5,0-0.7,0c0.4,0.2,0.8,0.4,1.2,0.7c0.4,0.3,0.8,0.5,1.2,0.7
			c0.7,0.6,1.5,1.1,2.1,1.8c2.4,1.9,4.8,4.6,6.2,8c0.8,1.6,1.2,3.4,1.6,5.2c0.1,0.9,0.3,1.8,0.3,2.7l0,1.4c0,0.5,0,0.9-0.1,1.4
			c-0.1,1.8-0.5,3.5-1,5.1c-0.2,0.8-0.5,1.5-0.8,2.2c-0.1,0.2-0.2,0.3-0.2,0.5l-0.1,0.2c0,0.1,0,0.1-0.1,0.2l-0.2,0.3
			c-0.5,0.9-1.1,1.8-1.6,2.6c-4.3,7.2-3,14-0.7,17.7c-1.7-3.8-1.5-7.1-1-9.5c0.5-2.4,1.4-4.1,2.2-5.4c0.5-0.7,0.8-1.2,1.2-1.7
			c0.4-0.5,0.8-1,1.2-1.4c0.3-0.4,0.7-0.8,1.1-1.2c0.2-0.2,0.4-0.4,0.6-0.7c-0.1,0.2-0.1,0.3-0.2,0.5l-0.1,0.2
			c-0.1,0.1-0.2,0.3-0.3,0.4c-0.3,0.6-0.7,1.2-1,1.7c-0.3,0.6-0.6,1.1-0.9,1.7c-0.3,0.5-0.5,1-0.7,1.5c-0.8,2-1.1,3.8-1.1,5.6
			c0,1.9,0.2,3.8,1.2,6c1,2.2,2.8,4.5,5.8,6.4c1.1,0.7,2.3,1.3,3.6,1.8c0.6,0.2,1.2,0.3,1.9,0.5c0.6,0.1,1.4,0.1,2,0.2
			c0.7,0.1,1.4,0.1,2.1,0.1c0.7,0,1.4,0,2.1,0c1,0,2.1,0,3.1,0c3.5,0,6.8,0.1,9.7,0.2c5.8,0.2,9.7,0.5,9.7,1
			c-4,0.2-8.1,0.2-12.1,0.1c-2,0-4,0-6-0.1c-1,0-1.9,0-2.9,0c-1.5,0-2.9,0-4.3,0c-0.6,0.1-0.4,0.3,0.3,0.4c0.4,0.1,0.9,0.1,1.6,0.2
			c0.6,0,1.4,0.1,2.2,0.1c2.2,0.2,5.4,0.3,9,0.4c7.2,0.2,15.7,0.3,20,0.5c-15.1-2.5,25-3.6-15.7-5.2l22.4-0.5
			c8.6-1.1-9.5-1.7-24.9-2.3c-3.8-0.1-7.5-0.3-10.6-0.4c-1.6-0.1-3-0.2-4.1-0.2c-0.6,0-1.1-0.1-1.5-0.1c-0.4-0.1-0.8,0-1.1-0.2
			c-1.1-0.6-1.1-0.9,0.1-0.7c0.2,0,0.3,0,0.6,0.1c0.2,0,0.4-0.1,0.7-0.1c0.5-0.1,1.1-0.1,1.8-0.2c1.4-0.1,3-0.3,5.5-0.4
			c3.9-0.7-1.3-1.4,11.9-2c-3.6-0.5-9.1-0.6-14.3-0.7c-0.8,0-1.6,0-2.4,0c-0.4,0-0.8,0-1.2,0c-0.4,0-0.7-0.2-1.1-0.3
			c-1.4-0.5-2.5-1.3-3.2-2c-0.2-0.8-0.4-2-0.1-3.4c0.2-0.7,0.5-1.4,0.9-2c0.4-0.7,0.9-1.2,1.4-2l0.2-0.3l0.3-0.5
			c0.2-0.4,0.4-0.8,0.6-1.1c0.4-0.8,0.7-1.6,1.1-2.4c0.7-1.7,1.2-3.4,1.6-5.2c0.4-1.8,0.6-3.7,0.7-5.5c0.1-1.8,0-3.7-0.1-5.6
			c-0.4-3.7-1.4-7.3-2.7-10.4c-0.4-0.8-0.7-1.5-1-2.3c-0.3-0.8-0.8-1.4-1.1-2.1c-0.7-1.4-1.6-2.6-2.4-3.7c-0.8-1.1-1.6-2-2.3-2.9
			c-0.7-0.9-1.4-1.5-2-2.2c-0.5-0.6-1-1.1-1.3-1.5c-0.3-0.4-0.5-0.7-0.5-0.9c-4.5-3.1-9.4-5-14.1-5.9c-4.7-0.9-9.3-1-13.5-0.3
			c-4.3,0.6-8.3,1.9-11.9,3.7c-3.6,1.9-6.8,4.2-9.6,6.9c-0.7,0.7-1.4,1.4-2,2.1l-1.9,2.3c-1.1,1.6-2.2,3.2-3.1,5
			c-1.8,3.5-3.2,7.4-3.9,11.5c-0.2,1-0.2,2.1-0.3,3.1c-0.1,1.1-0.1,2.1-0.1,3.2c0,2.1,0.2,4.4,0.6,6.6c0.8,4.5,2.6,9.2,5.6,13.5l0,0
			c0.1,0.2,0.2,0.4,0.3,0.7c0,0,0,0.1,0,0.1l0,0l0,0l0.2,0l0.2,0c0.2,0,0,0-0.4-0.1l0,0l0,0l0,0c5,1,1.4,0.3,2.5,0.5l0,0l0,0l0,0
			l0,0c0,0,0,0-0.1,0c-0.1,0-0.2-0.1-0.2-0.1l-0.1-0.1l-0.2-0.1c-0.2-0.1-0.4-0.3-0.7-0.5c-0.1-0.1-0.3-0.2-0.4-0.3l-0.2-0.2
			l-0.2-0.1c0,0-0.3,0.2-0.6,0.4c-0.2,0.1-0.4,0.2-0.6,0.3c-0.1,0-0.2,0.1-0.3,0.1l-0.1,0l0,0l0,0c0,0,0-0.1,0.1,0.3l0.5,1.6l0,0.1
			l0,0.1c0.6,1.9-0.8-2.5-0.6-2.1l0,0l0,0l0.1,0l2.2-0.3c-22,0.1-2.6,1.7-13.4,2.8c-21.7-0.8-43.4,0.5-56.6,1.1c-1.5,0-2.9,0-4.2,0
			c-1.7,0-3.3-0.1-4.7-0.1c-3.2-0.1-5.8-0.2-7.5-0.3c-3.5-0.3-3.7-0.6,2.2-0.8c-2.6,0-5.2-0.1-7.9-0.1l-0.2,11.3l-0.1,5.7l-0.1,3.7
			c-0.1,4.9-0.2,9.8-0.3,14.8c-0.2,9.9-0.4,19.7-0.5,29.6c-0.1,4.9-0.2,9.9-0.2,14.8l-0.1,6.7c-0.1,0.8,0.1,1.6-0.4,2.3
			c-0.4,0.7-1,1.3-1.7,1.4c-0.8,0.1-1.5-0.2-2.1-0.6c-0.2-0.1-0.3-0.2-0.4-0.3c-0.1-0.1-0.1-0.1-0.3-0.2l-0.2-0.1
			c-0.1,0-0.1,0-0.3-0.2c-1.4-0.8-2.8-1.4-4.3-2c-2.9-1.1-6-1.9-9.1-2.2c-6-0.8-12.5,0-18.3,2.1c-5.9,2.1-11.2,5.8-15.3,10.4
			c-8.5,9.2-12,22.9-8.9,35.1c2.8,12.3,12.1,22.9,23.9,27.4c5.9,2.3,12.4,3.1,18.5,2.5c6.2-0.6,12.5-2.8,17.8-6.6l0,0
			c0.1-0.1,0.3-0.1,0.4-0.2c0.1,0,0.1-0.1,0.2-0.1c0,0,0.1,0,0.1,0c0,0,0,0,0,0l0-0.2c-0.1-0.5-0.1-0.7-0.1-0.5c0,0.1,0,0.1,0,0.2
			l0,0.2l0,0l0,0l0,0l0,0c-0.1,0.6,1-4.8,0.5-2.5l0,0l0,0c0,0.1,0,0-0.1,0.2c-0.1,0.2-0.5,1-1.1,1.6c-0.2,0.2-0.4,0.4-0.5,0.5
			c0,0,0,0,0,0c0,0,0.1,0.1,0.1,0.1c0.1,0.2,0.2,0.4,0.4,0.6c0.1,0.1,0.1,0.3,0.2,0.4l0.1,0.2l0,0.1l0,0l1.2-0.4l0.7-0.2l0.3-0.1
			l0.2,0c-1.1,0.3,2.5-0.7-2.4,0.7l0,0l0-0.1l-0.3-2.3c0,2.7,0,5.4,0,8.1c-0.6,13.4-0.6,26.5-0.6,39.5c0,6.5,0,12.9,0,19.4
			c0,3.6,0,7.2-0.1,10.7c-0.1,6.1-0.1,12.1-0.2,18.2c4.2,0.1,8.3,0.1,12.5,0.2c2.1,0,4.2,0.1,6.4,0.1l1.6,0l0.9,0l1.7,0.1
			c4.5,0.2,9,0.5,13.6,0.9l-5.9-0.5c-0.8-0.3,3.7-0.4,7.3-0.5c-5.9-0.5-11.5-1.1-17-1.6c10.5,0.2,21.2,0.4,31.6,0.3
			c5.8-1,20.8-1,36.2-0.9l4.3,0c1.7,0,3.3-0.1,4.8-0.4c0.7-0.2,1.4-0.4,2.1-0.7c0.7-0.3,1.4-0.6,2.1-1c1.3-0.7,2.6-1.6,3.7-2.6
			c2.2-1.9,3.8-4.5,4.5-7.2c0.7-2.7,0.5-5.5-0.2-8.1c-0.4-1.3-0.9-2.5-1.5-3.7c-0.3-0.6-0.6-1.2-1-1.7c-0.4-0.5-0.7-1.1-1.1-1.6
			l-0.5-0.8l-0.2-0.4c-0.1-0.2-0.3-0.5-0.4-0.7c-0.3-0.5-0.5-1-0.7-1.4c-0.9-1.9-1.4-3.6-1.8-5.1c-0.1-1.4-0.2-2.8-0.1-4.1
			c0.1-0.6,0-1.3,0.2-1.9c0.1-0.6,0.2-1.2,0.3-1.8c0.1-0.6,0.3-1.1,0.4-1.7c0.1-0.3,0.1-0.5,0.2-0.8c0.1-0.3,0.2-0.5,0.3-0.8
			c0.2-0.5,0.4-1,0.6-1.5c0.2-0.5,0.5-0.9,0.7-1.3c1.8-3.4,4-5.7,6.1-7.3c0.5-0.4,1-0.7,1.5-1.1c0.5-0.4,1-0.6,1.5-0.9
			c0.5-0.2,0.9-0.5,1.4-0.7c0.5-0.2,0.9-0.4,1.3-0.6c0.4-0.2,0.8-0.3,1.3-0.4c0.4-0.1,0.8-0.3,1.2-0.4c0.8-0.2,1.6-0.3,2.4-0.5
			c3.1-0.4,6.4-0.4,11.2,1.1c0.6,0.2,1.2,0.5,1.8,0.7c0.6,0.3,1.2,0.7,1.9,1c0.7,0.4,1.3,0.8,2,1.3c0.3,0.3,0.7,0.5,1,0.8
			c0.3,0.3,0.7,0.5,1,0.9c1.4,1.2,2.6,2.8,3.8,4.5c1.1,1.8,2.1,4,2.8,6.5l0.3,1.1c0.1,0.4,0.1,0.7,0.2,1.1l0.2,1.1
			c0,0.4,0.1,0.8,0.1,1.1l0.1,1.1c0,0.4,0,0.8,0,1.2c0,0.8-0.1,1.6-0.2,2.4c-0.4,3.1-1.4,6.1-3.1,8.7c-0.1,0.1-0.1,0.2-0.2,0.3
			c-0.7,1.1-1.3,2.2-1.8,3.3c-0.2,0.6-0.5,1.2-0.7,1.8c-0.1,0.3-0.2,0.6-0.3,0.9c-0.1,0.3-0.2,0.7-0.2,1c-0.3,1.4-0.4,2.9-0.2,4.4
			c0.1,0.7,0.2,1.4,0.3,2.2c0.2,0.8,0.4,1.7,0.8,2.5c0.7,1.6,1.6,2.9,2.6,4.1c1,1.1,2,2,3.1,2.7c1,0.7,2.1,1.3,3.1,1.8
			c0.5,0.2,1,0.5,1.6,0.7l0.8,0.3c0.3,0.1,0.5,0.2,1.1,0.3l1.1,0.3l1.1,0c20.1-0.4,41.2-0.6,62.3-0.5c3.4,0,6.7,0.1,9.7,0.2
			c4.4,0.1,8.3,0.3,11.6,0.4c8,0.3,13,0.6,11.2,0.8c0.2,0,0.4,0,0.6,0c0-10.7-0.1-23.8-0.1-36.9c0-9.9,0-19.8,0-28.2
			c-0.2-9-0.5-15.5-0.7-20.1c-0.1-1.1-0.1-2.2-0.2-3.1c0-0.5-0.1-1-0.1-1.4c0-0.7-0.1-1.3-0.1-1.9c-0.1-1.2-0.1-2.1-0.2-2.9
			c-0.1-0.7-0.3-1.3-0.3-1.7c-0.4-1.6-0.4-0.6-0.4,2.2c-0.1,2.1-0.3,5.6-0.5,10.1C310.2,252,309.7,278.9,309.7,292.4z"/>
		<path class="st0" d="M81.2,87c-0.1,0.1,0,0.3,0,0.4c0,0.1,0.1,0.1,0.1,0.2l0,0c0,0,0,0,0.1,0c0.1,0,0.3,0.1,0.5,0.1
			c1.4,0.2,3.5,0.4,6,0.5c4.9,0.3,10.8,0.5,13.7,0.8l7.9-0.4c19.7-0.4,20.4-1.7,7.9-2.3c-2.3,0.5-8.7,0.7-15.9,0.8
			c-3.6,0-7.4,0-11.1,0c-1.8,0-3.6,0-5.2-0.1c-0.8,0-1.6,0-2.4,0c-0.4,0-0.8,0-1.1,0l-0.3,0C81.3,87,81.3,87,81.2,87L81.2,87z"/>
		<path class="st0" d="M23.5,181.6l0.4-2.1c-4.1,4.3-6.3,10.1-6.1,15.8c0.4-0.2,0.5-2.5,1.2-5.2C19.8,187.3,21.4,184,23.5,181.6z"/>
		<path class="st0" d="M303.2,99.5c0-2.1,0.1-4.2,0.1-6.1c0-1.9,0.1-3.7,0.1-5.4c0.1-3.3,0.2-6.3,0.3-9.2c-4.8-0.2-9.4-0.3-15.1-0.4
			c-5.6-0.1-11.7-0.1-19.4,0l4.6,2c4.9,0.2,10,0.4,15,0.6c1.3,0.1,2.5,0.1,3.8,0.2l1.6,0.1l1.4,0.1c1.7,0.1,3.5,0.2,5.2,0.3
			c-0.1,2.5-0.3,5-0.4,7.5c-0.1,3.7-0.2,7.5-0.3,11.4c-0.2,7.7-0.3,15.7-0.3,23.9C302,143.6,301.3,90.3,303.2,99.5z"/>
		<path class="st0" d="M275.9,75.6c4.6-0.2,9.3-0.4,14.1-0.5c1.2,0,2.4,0,3.6-0.1c1.5,0,3.1,0,4.6-0.1c3.1,0,6.2,0,9.4-0.1
			c0,4.8,0,9.5,0,14.3c0,3.7,0,7.5,0,11.2c0,7.5-0.1,14.9-0.1,22.2c0,14.6,0,28.8,0.7,41.6l0,0.4l-0.2,0.6c-0.1,0.5-0.2,0.7-0.3,1.1
			c-0.1,0.3-0.2,0.6-0.3,0.9c-0.2,0.6-0.5,1.2-0.8,1.8c-0.6,1.2-1.4,2.4-2.4,3.5c-1,1.1-2.4,2.1-4,2.7c-0.4,0.1-0.8,0.3-1.2,0.4
			c-0.4,0.1-0.7,0.2-1.1,0.2c-0.8,0.1-1.5,0.2-2.3,0.1c0.8,0.3,1.9,0.6,3.2,0.6c0.6,0,1.5-0.1,2.3-0.3c0.4-0.1,0.8-0.3,1.3-0.4
			c0.4-0.2,0.8-0.4,1.3-0.6c1.7-0.9,3.1-2.3,4.3-3.8c0.6-0.8,1.1-1.6,1.5-2.4c0.2-0.4,0.4-0.9,0.6-1.3c0.1-0.2,0.2-0.5,0.3-0.7
			c0.1-0.3,0.2-0.4,0.3-0.9l0.2-0.6l0.1-1.1c0.6-10.9,0.1-27-0.3-43.1c-0.2-8-0.4-16.1-0.5-23.4c0-1.8,0-3.6,0-5.4c0-2,0-4,0-5.9
			c0-4.9,0.1-9.5,0.3-13.7c0-0.3,0-0.5,0-0.7c-6.5,0.1-12.3,0.3-17.9,0.4c-3.8,0.1-7.5,0.3-11.3,0.4c-7.6,0.3-15.8,0.5-26.9,0.8
			C237.7,74.9,264.7,75.4,275.9,75.6z"/>
		<path class="st0" d="M284.9,168.9c-1.9-0.9-4.1-1.4-6.2-1.7c-2-0.3-3.9-0.3-5.1-0.2c-1.7,0.2-0.2,0.3,1.7,0.6
			c2,0.3,4.7,0.9,6.3,1.6c1.2,0.3,2.9,0.9,4.3,1.5c1.5,0.6,2.7,1.3,3.2,1.3c0.3,0.1,0.3,0.1,0.1-0.1c0-0.1-0.3-0.4-0.9-1
			C287.7,170.4,286.6,169.7,284.9,168.9z"/>
	</g>
</g>
</svg>
