<svg xmlns="http://www.w3.org/2000/svg" viewBox="0 0 144.35 240"><defs><style>.cls-1{fill:#ddd;}</style></defs><title>자산 9</title><g id="레이어_2" data-name="레이어 2"><g id="Design-page"><path class="cls-1" d="M144.35,3V0A27.38,27.38,0,0,0,117,27.35a26.23,26.23,0,0,0,4.71,15.35c1.11,1.7,1.09,2.73.94,3.43-.24,1.21-2,2.18-3.12,2.57H48.7v70.83c-.39,1.08-1.35,2.88-2.57,3.12a3,3,0,0,1-.66.07,5.13,5.13,0,0,1-2.77-1A26.23,26.23,0,0,0,27.35,117a27.35,27.35,0,0,0,0,54.7A26.23,26.23,0,0,0,42.7,167a5.13,5.13,0,0,1,2.77-1,3,3,0,0,1,.66.07c1.21.24,2.18,2,2.57,3.12V240h71.71l.39-.11c.68-.18,6.66-2,7.73-7.26a10.34,10.34,0,0,0-1.83-8l0,0,0-.05A20.22,20.22,0,0,1,123,212.65a21.38,21.38,0,0,1,21.35-21.35v-3A24.35,24.35,0,0,0,120,212.65a23.21,23.21,0,0,0,4.19,13.66,7.41,7.41,0,0,1,1.4,5.72c-.73,3.63-5.59,5-5.59,5H51.7V168.7s-1.34-4.85-5-5.59a6.13,6.13,0,0,0-1.26-.13A8.07,8.07,0,0,0,41,164.51a23.21,23.21,0,0,1-13.66,4.19,24.35,24.35,0,0,1,0-48.7A23.21,23.21,0,0,1,41,124.19a8.07,8.07,0,0,0,4.46,1.53,6.13,6.13,0,0,0,1.26-.13c3.63-.73,5-5.59,5-5.59V51.7H120s4.86-1.34,5.59-5a7.41,7.41,0,0,0-1.4-5.72A23.21,23.21,0,0,1,120,27.35,24.35,24.35,0,0,1,144.35,3"/></g></g></svg>