<svg xmlns="http://www.w3.org/2000/svg" viewBox="0 0 295.5 295.5"><defs><style>.cls-1{fill:#2d2924;}</style></defs><title>자산 10</title><g id="레이어_2" data-name="레이어 2"><g id="메인ver1"><path class="cls-1" d="M264.75,147.75A29.32,29.32,0,0,1,282,153a9.38,9.38,0,0,0,7.22,1.77c4.59-.93,6.28-7.06,6.28-7.06V61.5H209.25s-6.13-1.69-7.06-6.28A9.38,9.38,0,0,1,204,48a29.32,29.32,0,0,0,5.29-17.25,30.75,30.75,0,0,0-61.5,0A29.32,29.32,0,0,0,153,48a9.38,9.38,0,0,1,1.77,7.22c-.93,4.59-7.06,6.28-7.06,6.28H61.5v86.25s-1.69,6.13-6.28,7.06A9.38,9.38,0,0,1,48,153a29.32,29.32,0,0,0-17.25-5.29,30.75,30.75,0,0,0,0,61.5A29.32,29.32,0,0,0,48,204a9.38,9.38,0,0,1,7.22-1.77c4.59.93,6.28,7.06,6.28,7.06V295.5h86.25s6.13-1.69,7.06-6.28A9.38,9.38,0,0,0,153,282a29.32,29.32,0,0,1-5.29-17.25,30.75,30.75,0,0,1,61.5,0A29.32,29.32,0,0,1,204,282a9.38,9.38,0,0,0-1.77,7.22c.93,4.59,7.06,6.28,7.06,6.28H295.5V209.25s-1.69-6.13-6.28-7.06A9.38,9.38,0,0,0,282,204a29.32,29.32,0,0,1-17.25,5.29,30.75,30.75,0,0,1,0-61.5Z"/></g></g></svg>