<?xml version="1.0" encoding="utf-8"?>
<!-- Generator: Adobe Illustrator 22.0.1, SVG Export Plug-In . SVG Version: 6.00 Build 0)  -->
<svg version="1.1" id="레이어_1" xmlns="http://www.w3.org/2000/svg" xmlns:xlink="http://www.w3.org/1999/xlink" x="0px"
	 y="0px" viewBox="0 0 25.3 19.4" style="enable-background:new 0 0 25.3 19.4;" xml:space="preserve">
<style type="text/css">
	.st0{fill:#2D2924;}
</style>
<g>
	<path class="st0" d="M12.6,13.4c0.1,0.3,0.1,0.6,0,1c-0.1,0.4-0.4,0.7-0.8,0.8c-0.2,0.7-0.4,1.2-0.5,1.7c-0.2,0.5-0.4,1-0.6,1.4
		c-0.4,0.1-0.7,0.3-1,0.5c-0.3,0.2-0.6,0.4-0.9,0.5c-0.9,0.3-1.7,0.2-2.4-0.3c-0.8-0.5-1.4-1-2-1.5c-0.9-0.9-1.6-1.8-2.4-2.8
		s-1.2-2-1.5-3c-0.1-0.2-0.1-0.3,0-0.4c0-0.1,0.1-0.3,0.1-0.5c-0.3-0.3-0.5-0.5-0.5-0.7c0-0.2-0.1-0.4-0.2-0.6
		c0.4-0.4,0.7-0.9,0.9-1.4c0.3-0.5,0.5-1,0.8-1.5c0.3-0.5,0.5-1,0.8-1.4C2.8,4.7,3.2,4.3,3.6,4c0.1-0.4,0.3-0.7,0.5-0.9
		c0.2-0.2,0.4-0.4,0.5-0.6c0.6-0.4,1.1-0.8,1.5-1.2c0.5-0.5,1-0.8,1.7-1.1c0.4,0,0.8-0.1,1.3-0.2c0.5,0,0.8,0.1,1.1,0.5
		c0,0.3-0.1,0.5-0.2,0.6C10.1,1.3,10,1.5,9.9,1.7C9.2,1.8,8.5,2,7.8,2.2C7,2.4,6.6,2.8,6.3,3.5c-0.2,0-0.3,0-0.4,0.2S5.8,3.9,5.6,4
		C5.5,4.4,5.3,4.8,5.2,5.3C5.1,5.7,5,6.1,4.7,6.4c0,0.4,0.1,0.8,0,1.2c0,0.4-0.1,0.7-0.3,1C4.6,8.7,4.7,8.8,4.6,9
		C4.6,9.1,4.5,9.3,4.5,9.5c0,0.3,0.2,0.4,0.3,0.6c0.2,0.1,0.3,0.3,0.4,0.5c0.4-0.4,0.8-0.6,1.3-0.7c0.5,0,1-0.1,1.4-0.2
		c0.5,0.3,1.2,0.6,2,1c0.8,0.4,1.4,0.8,1.7,1.2c0.2,0.5,0.4,0.8,0.6,1C12.5,12.9,12.6,13.2,12.6,13.4z M3,9.5
		c-0.3-0.1-0.4,0-0.6,0.1C2.3,9.6,2.1,9.7,2,9.8c0,0.3,0,0.5-0.1,0.6c-0.1,0.2-0.1,0.4,0,0.6C2.2,10.6,2.6,10.1,3,9.5z M3.1,7.2
		c-0.2,0-0.4,0.1-0.6,0.3C2.4,7.7,2.2,7.9,2.2,8.1c-0.1,0.2-0.1,0.4,0,0.6C2.2,8.9,2.5,9,2.8,9C2.9,8.7,3,8.4,3,8.2
		C3.1,7.9,3.1,7.6,3.1,7.2z M3.6,11.4c-0.4,0-0.6,0.1-0.7,0.2c-0.1,0.2-0.3,0.3-0.5,0.4c0.4,0.4,0.6,0.4,0.8,0.2
		C3.4,11.9,3.5,11.6,3.6,11.4z M5.2,12.9C5,12.9,4.7,13,4.4,13.2c-0.3,0.2-0.5,0.3-0.7,0.5c-0.2,0.2-0.3,0.4-0.3,0.6
		c0,0.2,0.2,0.4,0.6,0.6c0-0.5,0.3-0.8,0.6-1C5,13.6,5.2,13.3,5.2,12.9z M8.8,13.9c-0.5-0.3-0.9-0.4-1.1-0.2
		c-0.3,0.2-0.6,0.3-0.9,0.4c-0.6,0.3-1,0.5-1.3,0.7C5.3,15,4.9,15.1,4.4,15c0.2,0.4,0.4,0.6,0.6,0.9c0.3,0.2,0.4,0.5,0.5,1
		c0.8-0.5,1.4-1,1.8-1.6C7.8,14.7,8.3,14.3,8.8,13.9z M11.3,14.5c0-0.4,0-0.7-0.2-1c-0.2-0.3-0.3-0.5-0.4-0.8
		c-0.6-0.2-1-0.5-1.3-0.8c-0.3-0.3-0.7-0.6-1.1-0.9c-0.5,0.1-0.8,0.1-1.1,0.1c-0.3,0-0.4,0.1-0.5,0.3c0.3,0.1,0.5,0,0.6,0
		s0.3-0.1,0.5-0.2c0.1,0.7-0.1,1.2-0.6,1.4c-0.5,0.2-0.9,0.6-1.1,1.1c0.6-0.1,1.1-0.3,1.5-0.6c0.4-0.3,0.9-0.4,1.6-0.3
		c0.3,0.3,0.3,0.6,0.3,0.9C9.3,14,9.2,14.3,9,14.5c-0.2,0.2-0.4,0.4-0.7,0.6c-0.3,0.2-0.5,0.3-0.6,0.4c-0.1,0.4-0.1,0.7-0.2,0.8
		c-0.1,0.2-0.2,0.3-0.4,0.5c0.2,0.6,0.2,1,0.2,1.1c0.3,0,0.5,0,0.7,0.1c0.2,0.1,0.5,0,0.8-0.1c0.2,0,0.5-0.2,0.8-0.5
		c0.3-0.3,0.6-0.6,0.8-1c0.3-0.4,0.5-0.7,0.6-1.1C11.2,14.9,11.3,14.6,11.3,14.5z M25.2,11.7c0.2,1.3,0,2.2-0.3,2.9
		c-0.4,0.7-0.8,1.4-1.4,2.2c-0.5,0.2-0.8,0.3-0.8,0.5c-0.1,0.2-0.2,0.3-0.3,0.3c-0.5,0.3-1,0.5-1.6,0.6c-0.6,0.1-1.2,0.2-1.8,0.1
		c-0.6,0-1.2-0.2-1.8-0.5c-0.6-0.3-0.9-0.6-1.1-1c-0.3,0.1-0.4,0-0.5,0c-0.1-0.1-0.2-0.1-0.4-0.2c0-0.5-0.3-0.8-0.8-0.8
		c0-0.5,0-0.8-0.2-0.9c-0.2-0.1-0.3-0.2-0.4-0.4c0.2-0.2,0.2-0.4,0.1-0.6c-0.1-0.2-0.1-0.4,0-0.6c-0.1-0.2-0.2-0.3-0.3-0.4
		c-0.1,0-0.2-0.1-0.3-0.2c-0.2-0.4-0.1-0.6,0.2-0.8c0.3-0.2,0.4-0.5,0.3-0.9c-0.1-0.1-0.3-0.2-0.5-0.2c-0.2,0-0.4-0.1-0.6-0.2
		c0.1-0.2,0.1-0.3,0-0.5c-0.1-0.2-0.2-0.3-0.3-0.4c0.1-0.4,0.2-0.6,0.3-0.7c0.1-0.1,0.2-0.2,0.2-0.4c1.1-1.2,1.9-2.3,2.6-3.2
		c0.7-0.9,1.5-1.8,2.3-2.7c0.5-0.3,1-0.5,1.4-0.6c0.4-0.1,0.8-0.3,1-0.6c0.7,0,1.4-0.2,2.1-0.4c0.7-0.2,1.4-0.1,1.9,0.4
		c0,0.3-0.2,0.4-0.6,0.6c-0.4,0.1-0.7,0.1-0.8-0.2c-0.2,0.4-0.4,0.6-0.6,0.6c-0.2,0.1-0.3,0.2-0.3,0.3c-1.6,0.4-2.8,1.2-3.7,2.5
		c-0.8,1.3-0.9,2.8-0.4,4.5c0.4,0.2,0.8,0.1,1.1-0.1c0.3-0.2,0.6-0.3,1-0.3c0.7,0.2,1.1,0.2,1.4,0.1c0.3-0.1,0.4,0,0.5,0.2
		c0.5-0.1,0.8,0,1.1,0.2c0.3,0.2,0.6,0.4,0.9,0.5c0.6,0.4,0.9,0.6,1,0.9C24.8,11.5,25,11.6,25.2,11.7z M16.5,11.3
		c-0.5-0.4-0.8-0.5-1-0.3c-0.2,0.2-0.4,0.3-0.6,0.4c0.5,0.3,0.8,0.4,1,0.3C16,11.5,16.2,11.4,16.5,11.3z M16,9.2
		c-0.3-0.4-0.5-0.5-0.5-0.4c-0.1,0.1-0.2,0.2-0.4,0.2c0.3,0.4,0.5,0.6,0.6,0.5C15.8,9.3,15.9,9.3,16,9.2z M17,11.9
		c-0.5-0.1-0.8,0-1.2,0.3c-0.3,0.3-0.5,0.6-0.5,0.8c0.3-0.1,0.6-0.3,0.9-0.5C16.4,12.4,16.7,12.1,17,11.9z M20.3,12.7
		c-0.2,0-0.4,0-0.5,0.1c-0.1,0.1-0.3,0.1-0.6,0c-0.4,0.6-0.9,0.9-1.6,1.1C17,14,16.4,14.3,16,14.7c0.9,0.2,1.6,0.1,2.1-0.5
		c0.6-0.5,1.2-0.8,1.9-0.9L20.3,12.7z M21.5,11.1c-0.6-0.3-1-0.2-1.3,0.1c-0.3,0.3-0.8,0.5-1.3,0.5c-0.4,0.3-0.8,0.6-1.3,0.8
		c-0.5,0.3-1,0.5-1.5,0.8c0.2,0.4,0.3,0.6,0.4,0.5s0.2-0.1,0.3,0c0.2-0.4,0.4-0.7,0.8-0.8c0.4-0.2,0.9-0.3,1.4-0.3
		c0.1-0.4,0.5-0.7,1.1-0.8C20.8,11.8,21.3,11.5,21.5,11.1z M23.7,12.1c-0.5-0.2-0.8-0.2-0.8-0.1c-0.1,0.1-0.1,0.1-0.2,0.2
		c-0.5,0.2-0.9,0.4-1.2,0.6c-0.3,0.3-0.5,0.4-0.8,0.5c-0.1,0.2-0.3,0.4-0.6,0.5c-0.4,0.1-0.7,0.2-1.1,0.3c0.5,0.4,1,0.5,1.3,0.2
		c0.4-0.3,0.7-0.5,1-0.5c-0.1,0.2-0.2,0.3-0.4,0.4s-0.3,0.2-0.4,0.3c-0.4-0.2-0.6-0.1-0.8,0.2c-0.2,0.3-0.4,0.4-0.8,0.4
		c-0.6-0.3-1-0.3-1.1,0.1c0.1,0.1,0.2,0.1,0.3-0.1c0.1-0.2,0.3-0.2,0.5-0.2c-0.2,0.3-0.4,0.6-0.5,0.8c-0.1,0.2-0.3,0.3-0.6,0.4
		c0.3,0.6,0.7,0.9,1.2,0.9c0.6,0,1.2,0.1,1.9,0.2c0.4-0.3,0.8-0.6,1.3-0.9c0.5-0.3,0.9-0.7,1.2-1.1c0.3-0.4,0.6-0.9,0.7-1.4
		C24.1,13.4,24,12.8,23.7,12.1z M21.7,14.9c0.1,0.3,0,0.5-0.2,0.6c-0.2,0.2-0.4,0.4-0.5,0.6c0.2-0.4,0.2-0.6,0.3-0.8
		c0-0.2,0-0.3-0.1-0.4L21.7,14.9z M22.4,13.7c-0.5,0.2-0.7,0.2-0.8,0.1c0.3-0.2,0.5-0.2,0.7-0.3c0.2,0,0.2-0.2,0.2-0.4V13.7z
		 M23.4,13.3c0,0.3-0.1,0.5-0.3,0.6c-0.2,0.1-0.3,0.3-0.4,0.5c-0.6,0.3-0.9,0.3-0.9,0.1c0.3-0.5,0.6-0.8,0.8-0.9S23,13.3,23,13
		L23.4,13.3z"/>
</g>
</svg>
