<?xml version="1.0" encoding="utf-8"?>
<!-- Generator: Adobe Illustrator 22.0.1, SVG Export Plug-In . SVG Version: 6.00 Build 0)  -->
<svg version="1.1" id="레이어_1" xmlns="http://www.w3.org/2000/svg" xmlns:xlink="http://www.w3.org/1999/xlink" x="0px"
	 y="0px" viewBox="0 0 25.3 19.4" style="enable-background:new 0 0 25.3 19.4;" xml:space="preserve">
<style type="text/css">
	.st0{fill:#2D2924;}
</style>
<g>
	<g>
		<path class="st0" d="M0.1,7.7C-0.1,6.4,0,5.5,0.4,4.8c0.4-0.7,0.8-1.4,1.4-2.2c0.5-0.2,0.7-0.3,0.8-0.5c0-0.2,0.2-0.3,0.3-0.3
			c0.5-0.3,1-0.5,1.6-0.6S5.7,1,6.3,1.1C7,1.1,7.5,1.3,8.1,1.5c0.5,0.3,0.9,0.6,1.1,1c0.3-0.1,0.4,0,0.6,0c0.1,0.1,0.3,0.1,0.4,0.2
			c0,0.5,0.3,0.7,0.8,0.7c-0.1,0.6,0,0.9,0.2,1c0.2,0.1,0.3,0.2,0.4,0.4c-0.2,0.2-0.2,0.4-0.1,0.6c0.1,0.2,0.1,0.4,0,0.6
			c0.1,0.2,0.2,0.3,0.3,0.3c0.1,0.1,0.2,0.1,0.3,0.2c0.1,0.4,0,0.7-0.2,0.9c-0.2,0.2-0.3,0.5-0.3,0.9c0.1,0.1,0.3,0.2,0.5,0.2
			c0.2,0.1,0.4,0.1,0.5,0.2c-0.1,0.2-0.1,0.3,0,0.4c0.1,0.1,0.3,0.2,0.4,0.3c-0.1,0.4-0.2,0.7-0.3,0.8c-0.1,0.1-0.2,0.2-0.2,0.4
			c-1,1.2-1.9,2.2-2.6,3.2c-0.7,1-1.5,1.9-2.3,2.7c-0.5,0.3-1,0.5-1.4,0.6c-0.4,0.1-0.8,0.3-1,0.6c-0.4,0-0.7,0.1-1.1,0.2
			c-0.4,0.1-0.7,0.2-1,0.2c-0.3,0.1-0.7,0.1-1,0c-0.3,0-0.6-0.2-1-0.4c0-0.3,0.2-0.4,0.6-0.6c0.4-0.1,0.7-0.1,0.8,0.2
			c0.2-0.4,0.4-0.6,0.6-0.6c0.2,0,0.3-0.2,0.4-0.4c1.6-0.3,2.8-1.1,3.7-2.5c0.8-1.3,0.9-2.9,0.4-4.5c-0.4-0.1-0.8,0-1.1,0.2
			C6.2,9.9,5.9,9.9,5.6,9.9c-0.7-0.2-1.1-0.2-1.4,0C4,10,3.8,9.9,3.7,9.6C3.2,9.7,2.8,9.6,2.6,9.5C2.4,9.3,2.1,9.2,1.7,9.1
			c-0.6-0.4-0.9-0.6-1-0.9C0.6,7.9,0.4,7.8,0.1,7.7z M1.6,7.3c0.5,0.2,0.8,0.2,0.8,0.1c0-0.1,0.1-0.1,0.2-0.2
			c0.5-0.2,0.9-0.4,1.2-0.6c0.3-0.3,0.6-0.4,0.8-0.5c0.1-0.2,0.3-0.4,0.6-0.5C5.7,5.5,6,5.4,6.4,5.3C5.9,4.9,5.5,4.9,5.1,5.2
			c-0.4,0.3-0.7,0.5-1,0.5c0.1-0.2,0.2-0.3,0.4-0.4C4.6,5.1,4.7,5,4.8,4.9C5.2,5,5.4,5,5.6,4.7C5.8,4.4,6,4.3,6.4,4.3
			c0.6,0.4,1,0.3,1.1-0.1C7.4,4.1,7.3,4.1,7.2,4.3C7,4.4,6.9,4.5,6.7,4.4C6.9,4.1,7,3.8,7.2,3.6c0.1-0.2,0.3-0.4,0.6-0.4
			C7.5,2.6,7.1,2.4,6.5,2.4C6,2.4,5.3,2.3,4.6,2.2C4.2,2.5,3.8,2.8,3.3,3.1C2.9,3.4,2.5,3.8,2.1,4.2C1.7,4.6,1.5,5,1.4,5.6
			C1.3,6.1,1.3,6.6,1.6,7.3z M2,6.1C2,5.8,2,5.6,2.2,5.5c0.2-0.1,0.3-0.3,0.3-0.5c0.7-0.3,1-0.3,1-0.1C3.2,5.3,2.9,5.6,2.7,5.8
			C2.5,5.9,2.4,6.1,2.3,6.4L2,6.1z M2.9,5.7c0.5-0.2,0.8-0.2,0.9-0.1C3.5,5.8,3.2,5.9,3.1,5.9C2.9,5.9,2.9,6,2.9,6.2V5.7z M3.6,4.5
			C3.5,4.2,3.6,4,3.8,3.8C4,3.7,4.2,3.5,4.3,3.2C4.2,3.6,4.1,3.9,4,4c0,0.2,0,0.3,0.1,0.4L3.6,4.5z M3.9,8.3
			c0.3,0.2,0.5,0.2,0.7,0.2c0.2,0,0.4-0.1,0.6-0.3c0.2-0.1,0.4-0.2,0.6-0.3C6,7.7,6.2,7.7,6.4,7.7c0.8-0.6,1.7-1.1,2.8-1.6
			C9.1,5.7,9,5.5,8.9,5.6s-0.2,0.1-0.3,0C8.4,6,8.1,6.2,7.7,6.4C7.3,6.5,6.8,6.6,6.2,6.6C6.1,7.1,5.8,7.4,5.1,7.5
			C4.5,7.6,4.1,7.9,3.9,8.3z M5.1,6.7c0.2,0.1,0.4,0,0.5-0.1c0.1-0.1,0.3-0.1,0.5,0c0.4-0.5,0.9-0.8,1.6-1c0.7-0.2,1.3-0.4,1.7-0.8
			C8.5,4.5,7.8,4.7,7.3,5.2C6.7,5.7,6.1,6,5.4,6.1L5.1,6.7z M8.4,7.5c0.4,0.1,0.8,0,1.1-0.3c0.4-0.3,0.5-0.6,0.5-0.9
			C9.7,6.4,9.4,6.6,9.2,6.8C8.9,7,8.7,7.3,8.4,7.5z M8.9,8.1c0.4,0.4,0.7,0.5,0.9,0.3c0.2-0.2,0.4-0.3,0.7-0.4
			C9.9,7.8,9.6,7.7,9.4,7.8C9.2,7.9,9.1,8,8.9,8.1z M9.3,10.3c0.4,0.4,0.6,0.5,0.6,0.4c0-0.1,0.2-0.2,0.4-0.2C10,10,9.7,9.9,9.6,10
			S9.4,10.2,9.3,10.3z M12.7,6c-0.1-0.3-0.1-0.6,0-1c0.1-0.4,0.4-0.7,0.8-0.8C13.7,3.6,13.9,3,14,2.5c0.2-0.5,0.4-0.9,0.6-1.4
			c0.4-0.1,0.7-0.3,1-0.5c0.3-0.2,0.6-0.4,0.9-0.5C17.4-0.1,18.2,0,19,0.5c0.8,0.5,1.4,1,2,1.6c0.8,0.9,1.6,1.8,2.3,2.8
			c0.7,1,1.3,2,1.6,3c0,0.2,0,0.3,0,0.4c-0.1,0.1-0.1,0.3-0.1,0.5c0.3,0.3,0.4,0.5,0.4,0.7c0,0.2,0,0.4,0.1,0.5
			c-0.4,0.4-0.7,0.9-0.9,1.4c-0.3,0.5-0.5,1.1-0.7,1.6c-0.2,0.5-0.5,1-0.8,1.4c-0.3,0.5-0.7,0.8-1.1,1.1c-0.1,0.4-0.3,0.6-0.5,0.8
			c-0.2,0.2-0.4,0.4-0.5,0.7c-0.6,0.4-1.1,0.7-1.6,1.2c-0.5,0.4-1.1,0.8-1.7,1c-0.4,0.1-0.8,0.1-1.3,0.2c-0.5,0.1-0.8-0.1-1.1-0.4
			c0-0.3,0-0.5,0.2-0.6s0.2-0.4,0.3-0.6c0.7-0.1,1.4-0.3,2.1-0.5c0.7-0.2,1.2-0.7,1.4-1.3c0.2,0.1,0.3,0,0.4-0.1
			c0-0.1,0.2-0.2,0.4-0.3c0.2-0.4,0.3-0.8,0.4-1.3c0.1-0.5,0.3-0.9,0.5-1.2c-0.1-0.4-0.1-0.8,0-1.1c0-0.4,0.1-0.7,0.3-1
			c-0.2,0-0.3-0.2-0.2-0.3c0-0.2,0.1-0.4,0.2-0.6c-0.1-0.3-0.2-0.4-0.3-0.5c-0.2-0.1-0.3-0.3-0.4-0.5c-0.4,0.4-0.8,0.6-1.3,0.6
			c-0.5,0.1-1,0.1-1.4,0.2c-0.5-0.3-1.2-0.6-2-0.9c-0.8-0.4-1.4-0.7-1.7-1.1c-0.2-0.5-0.4-0.8-0.6-1C12.8,6.5,12.7,6.3,12.7,6z
			 M14,4.9c-0.1,0.4,0,0.7,0.2,1c0.2,0.3,0.3,0.5,0.4,0.8c0.5,0.3,0.9,0.5,1.3,0.9c0.4,0.3,0.7,0.6,1.1,0.9c0.5,0,0.8-0.1,1.1-0.1
			c0.3,0,0.4-0.1,0.5-0.3c-0.3,0-0.5,0-0.6,0s-0.3,0.1-0.5,0.2c-0.1-0.7,0.1-1.2,0.6-1.4c0.5-0.3,0.8-0.6,1.1-1.1
			c-0.6,0.1-1,0.3-1.4,0.5c-0.4,0.3-1,0.3-1.7,0.2c-0.3-0.3-0.3-0.6-0.3-0.9c0.1-0.3,0.2-0.5,0.5-0.8c0.2-0.2,0.5-0.4,0.7-0.6
			c0.3-0.2,0.5-0.3,0.6-0.4c0-0.5,0.1-0.8,0.2-0.9s0.2-0.3,0.4-0.4c-0.2-0.6-0.2-1-0.2-1.1c-0.3,0-0.5,0-0.7-0.1
			c-0.2,0-0.5,0-0.8,0.1c-0.3,0.1-0.5,0.2-0.8,0.5c-0.3,0.3-0.5,0.6-0.8,1c-0.3,0.4-0.5,0.7-0.6,1.1C14.1,4.6,14,4.8,14,4.9z
			 M16.5,5.6c0.5,0.3,0.9,0.4,1.1,0.2c0.3-0.2,0.6-0.3,0.9-0.4c0.6-0.3,1-0.5,1.2-0.7c0.3-0.2,0.6-0.3,1.1-0.2
			c-0.2-0.4-0.4-0.7-0.6-0.9c-0.3-0.3-0.4-0.6-0.5-0.9C19,3,18.4,3.6,18,4.1C17.6,4.7,17.1,5.1,16.5,5.6z M20.1,6.5
			c0.2,0,0.5-0.1,0.8-0.3c0.3-0.1,0.6-0.3,0.8-0.5c0.2-0.2,0.3-0.4,0.3-0.6c0-0.2-0.2-0.4-0.5-0.6c-0.1,0.5-0.3,0.8-0.6,1
			C20.4,5.8,20.2,6.1,20.1,6.5z M21.7,8.1c0.3,0,0.5-0.1,0.6-0.2c0.1-0.2,0.3-0.3,0.6-0.4c-0.4-0.4-0.7-0.4-0.8-0.2
			C21.9,7.6,21.8,7.8,21.7,8.1z M22.2,12.2c0.2,0,0.4-0.1,0.6-0.3c0.2-0.2,0.3-0.4,0.4-0.6c0.1-0.2,0.1-0.4,0-0.6
			c-0.1-0.2-0.3-0.3-0.7-0.3c-0.1,0.3-0.2,0.6-0.2,0.8S22.2,11.8,22.2,12.2z M22.3,9.9c0.3,0.1,0.5,0,0.6-0.1
			c0.1-0.1,0.3-0.2,0.4-0.2c-0.1-0.2,0-0.4,0.1-0.5c0.1-0.2,0.1-0.4,0-0.6c-0.3,0.3-0.5,0.5-0.7,0.7C22.7,9.4,22.5,9.6,22.3,9.9z"/>
	</g>
</g>
</svg>
